# xmcd
#
# Track frame offsets: 
#        150
#        23376
#        43192
#        72798
#        92633
#        111706
#        138604
#        160864
#        185875
#        217434
#        239673
#
# Disc length: 3538 seconds
#
# Revision: 0
# Processed by: cddbd v1.5.2PL0 Copyright (c) Steve Scherf et al.
# Submitted via: ExactAudioCopyFreeDBPlugin 1.0
#
DISCID=ac0dd00b
DTITLE=The Isley Brothers - Masterpiece
DYEAR=2016
DGENRE=Rhythm and Blues
TTITLE0=May I
TTITLE1=My Best Was Good Enough
TTITLE2=If Leavin Me is Easy
TTITLE3=You Never Know When You're Gonna Fall in Love
TTITLE4=Stay Gold
TTITLE5=Colder Are My Nights
TTITLE6=Come to Me
TTITLE7=Release Your Love
TTITLE8=The Most Beautiful Girl
TTITLE9=Colder Are My Nights (single version)
TTITLE10=Colder Are My Nights (instrumental)
EXTD=
EXTT0=
EXTT1=
EXTT2=
EXTT3=
EXTT4=
EXTT5=
EXTT6=
EXTT7=
EXTT8=
EXTT9=
EXTT10=
PLAYORDER=
